<mxfile host="app.diagrams.net" agent="Mozilla/5.0 (Macintosh; Intel Mac OS X 10_15_7) AppleWebKit/537.36 (KHTML, like Gecko) Chrome/133.0.0.0 Safari/537.36" version="26.0.15">
  <diagram name="Page-1" id="eMGl5U0h2kru_OWQHqDH">
    <mxGraphModel dx="687" dy="452" grid="1" gridSize="10" guides="1" tooltips="1" connect="1" arrows="1" fold="1" page="1" pageScale="1" pageWidth="827" pageHeight="1169" math="0" shadow="0">
      <root>
        <mxCell id="0" />
        <mxCell id="1" parent="0" />
        <mxCell id="RY2IrxtAXpCh7KXBzYzV-2" value="" style="rounded=0;whiteSpace=wrap;html=1;dashed=1;strokeWidth=1;fillColor=none;strokeColor=#007FFF;" vertex="1" parent="1">
          <mxGeometry x="10" y="10" width="140" height="140" as="geometry" />
        </mxCell>
        <mxCell id="RY2IrxtAXpCh7KXBzYzV-3" value="" style="rounded=1;whiteSpace=wrap;html=1;fillColor=#dae8fc;strokeColor=#6c8ebf;strokeWidth=1;" vertex="1" parent="1">
          <mxGeometry x="30" y="90" width="100" height="40" as="geometry" />
        </mxCell>
        <mxCell id="RY2IrxtAXpCh7KXBzYzV-4" value="" style="verticalLabelPosition=bottom;aspect=fixed;html=1;shape=mxgraph.salesforce.bots;fillColor=none;" vertex="1" parent="1">
          <mxGeometry x="53.67999999999995" y="20" width="52.64" height="50" as="geometry" />
        </mxCell>
        <mxCell id="RY2IrxtAXpCh7KXBzYzV-12" value="AssistantAgent" style="text;html=1;align=center;verticalAlign=middle;resizable=0;points=[];autosize=1;strokeColor=none;fillColor=none;" vertex="1" parent="1">
          <mxGeometry x="30" y="144" width="100" height="30" as="geometry" />
        </mxCell>
      </root>
    </mxGraphModel>
  </diagram>
</mxfile>
